<?xml version="1.0" encoding="UTF-8"?>
<svg id="Layer_1" data-name="Layer 1" xmlns="http://www.w3.org/2000/svg" viewBox="0 0 1366 560">
  <defs>
    <style>
      .cls-1 {
        letter-spacing: .01em;
      }

      .cls-2 {
        letter-spacing: -.01em;
      }

      .cls-3 {
        letter-spacing: 0em;
      }

      .cls-4 {
        fill: #9d1f60;
        font-family: MyriadVariableConcept-Roman, 'Myriad Variable Concept';
        font-size: 101.29px;
        font-variation-settings: 'wght' 300, 'wdth' 70;
      }

      .cls-5 {
        font-size: 127.25px;
      }

      .cls-5, .cls-6 {
        fill: #034b25;
        font-family: BebasNeueRounded-Regular, 'Bebas Neue Rounded';
      }

      .cls-7 {
        letter-spacing: 0em;
      }

      .cls-6 {
        font-size: 300.72px;
      }

      .cls-8 {
        letter-spacing: 0em;
      }

      .cls-9 {
        fill: #343f27;
        stroke-width: 0px;
      }
    </style>
  </defs>
  <text class="cls-4" transform="translate(242.76 499.93)"><tspan class="cls-1" x="0" y="0">B</tspan><tspan class="cls-3" x="38.99" y="0">osque de </tspan><tspan class="cls-8" x="311.45" y="0">a</tspan><tspan class="cls-2" x="343.86" y="0">v</tspan><tspan x="374.86" y="0">es</tspan></text>
  <g>
    <text class="cls-5" transform="translate(27.56 126.44)"><tspan x="0" y="0">Finca</tspan></text>
    <text class="cls-6" transform="translate(19.07 364.13)"><tspan x="0" y="0">G</tspan><tspan class="cls-7" x="117.58" y="0">u</tspan><tspan x="237.87" y="0">arumo</tspan></text>
  </g>
  <g>
    <path class="cls-9" d="m1087.42,225.9s-.08-.09-.13-.13c-.09.08-.07.15.06.22.02-.03.04-.06.06-.09Z"/>
    <path class="cls-9" d="m1103.17,286.56c-.13.17-.12.33.03.47.02-.06.04-.13.07-.23-.03-.07-.06-.16-.1-.25Z"/>
    <path class="cls-9" d="m1279.23,275.46c-41.07-31.93-97.84-42.68-147.72-27.82,24.5-8.89,51.2-8.81,77.27-8.95,26.07-.13,52.87-.73,76.91-10.81,24.04-10.08,44.96-31.9,46.19-57.94,1.18-25.03-16.82-48.59-40.03-58.04s-50.22-6.26-72.94,4.28c-22.73,10.55-41.69,27.84-58.32,46.57-16.64,18.74-31.32,39.14-47.96,57.87,28.36-33.08,52.19-70.03,70.63-109.5,5.41-11.57,10.46-24.41,7.41-36.82-3.19-12.98-15.2-22.68-28.29-25.39-13.09-2.72-26.89.74-38.62,7.15-32.84,17.95-49.8,60.59-38.26,96.19,5.73-22.99,22.89-42.83,44.82-51.81-2.03,4.35-4.07,8.7-6.1,13.06,16.99-9.92,38.87-10.93,56.7-2.62-14.57-7.15-32.44,4.13-39.59,18.69-7.16,14.56-7.21,31.44-10.07,47.41-3.85,21.51-13.11,42.04-26.68,59.17-.16,0-.98,46.75-1.07,51-.17,8.09-.9,16.39-.72,24.45.16,7.44,1.89,15.82,3.38,23.19,1.67,8.22,3.72,16.36,6.14,24.39,4.75,15.79,10.93,31.15,18.45,45.82,6.75,13.18,15.05,26.28,27.68,34,12.63,7.72,30.6,8.44,41.19-1.9,7.4-7.23,9.86-18.41,8.64-28.68s-5.66-19.86-10.42-29.05c-18.39-35.5-42.43-68.05-70.96-96.06,34.13,24.55,68.26,49.11,102.4,73.66,17.58,12.65,38.89,25.95,59.44,19.11,19.27-6.41,29.21-29.63,25.72-49.64-3.48-20.01-17.42-36.73-33.25-49.45-.64-.52-1.29-1.03-1.94-1.54Zm-128.65-176.36c8.45-3.19,28-3.93,31.58,7.08-5.01-10.18-23.28-4.59-31.58-7.08Z"/>
    <path class="cls-9" d="m1092.72,311.02s.01,0,.02,0c0,0,0,.01,0,.01,0,0,0-.01-.01-.02-.36-.06-.73-.11-1.09-.17,0,2.06-.02,3.72-1.47,5.3h.01l-.03.02c.42.22.5.42.24.59-.17-.2-.33-.41-.5-.61h0c-1.83-1.91-2.15-1.63-2.17-4.2-.72.05-1.59.1-2.19.34-.26-29.57-2.43-61.94.88-91.27.13.09.24.18.37.28.05-.65.09-1.31.21-1.95.4-4.08.55-8.15.1-12.28-.23-2.07-1.06-3.97-1.84-5.89-.26,6.24-.83,12.46-1.88,18.65-3.56-30.71-15.46-60.42-34.1-85.09-9.25-12.24-22.27-24.14-37.58-23.07-14.82,1.04-26.58,15.05-28.22,29.82-1.64,14.76,5.14,29.47,14.98,40.6,9.84,11.13,22.52,19.28,35.04,27.29-13.09-4.25-26.52-8.51-40.27-7.93-13.74.59-28.08,7.04-34.28,19.32-6.82,13.52-1.72,31,9.44,41.23,11.16,10.23,27.03,14.03,42.16,13.5,15.13-.53,29.82-4.96,44.3-9.36-19.56,18.67-39.12,37.33-58.67,56-5.62,5.36-11.6,13.78-6.98,20.01,2.72,3.67,8.18,4.35,12.48,2.8,4.3-1.54,7.72-4.81,11-8l58.59-56.87c-15.91,25.17-29.95,51.52-41.96,78.76-3.68,8.36-7.23,17.05-7.45,26.18-.22,9.13,3.59,18.9,11.55,23.37,8.89,4.99,20.6,1.98,28.28-4.72,7.68-6.7,12.07-16.35,15.6-25.91,7.93-21.53,12.5-44.06,16.26-66.74-.19-.36-.36-.75-.47-1.23-.78.23-.89.64-.35,1.21Z"/>
    <path class="cls-9" d="m1132.54,102.72l-.08-.08s.06,0,.09,0c0,.03,0,.05-.01.08Z"/>
    <path class="cls-9" d="m1139.82,107.21c-.06-.18.03-.25.28-.22,0,.05.01.1.02.17-.1.02-.2.03-.3.05Z"/>
    <path class="cls-9" d="m1141.37,107.08c-.01-.13-.03-.26-.04-.39.5,0,1,0,1.49,0-.48.13-.97.26-1.45.39Z"/>
    <path class="cls-9" d="m1178.89,106.63l-.04-.03h.04c0-.08,0-.16,0-.23-.08,0-.17,0-.25,0v-.04c.09.02.21-.03.25.03,0-.01,0-.02,0-.04.08.07.17.32.25.27-.08,0-.16,0-.24,0,0,0,0,.02,0,.03Z"/>
    <path class="cls-9" d="m1092.78,311.82c.14.13.3.25.42.39-.14-.13-.28-.26-.42-.39h0Z"/>
    <polygon class="cls-9" points="1085.83 313.05 1085.84 313.1 1085.81 313.05 1085.83 313.05"/>
    <path class="cls-9" d="m1085.15,312.61l.02.02c.01-.13.24-.24.33-.36,0,.12-.24.24-.33.36-.02.02-.04.03-.07.05.02-.02.03-.05.05-.07Z"/>
    <path class="cls-9" d="m1103.28,307.09c-.12-.16-.25-.32-.37-.48,0,0,0,0,0,0l.46.38s-.06.07-.09.1Z"/>
    <polygon class="cls-9" points="1104.98 277.22 1104.93 277.19 1104.98 277.16 1104.98 277.22"/>
    <path class="cls-9" d="m1102.86,293.57s.01,0,.02,0c0-.03,0-.07,0-.1,0,.03,0,.07-.01.1Z"/>
    <path class="cls-9" d="m1102.85,293.15c.02.11,0,.22.02.32,0-.06.01-.11.02-.17-.01-.05-.03-.1-.04-.16Z"/>
    <path class="cls-9" d="m1101.82,311.05s-.06.03-.09.05c.06.1.12.21.17.31.09.1.22.16.27.28-.22-.16-.33-.38-.35-.64Z"/>
    <path class="cls-9" d="m1119.31,110.98c2.02-.04,3.19-1,3.54-2.91-.54-6.63-8.11,2.82-3.54,2.91Zm.93-.83c-.59-.59-.97-.96-1.35-1.34.95-1.73,1.97-1.85,3.08-.36-.51.51-1.03,1.01-1.73,1.7Z"/>
    <path class="cls-9" d="m1101.16,292.42v-.18c-.2.05-.19.12,0,.18Z"/>
    <path class="cls-9" d="m1117.27,109.91c.04.14.08.27.11.41l.13-.04c-.46-.49-.09-1.23-.56-1.81-5.39,7.08.33,1.41.32,1.44Z"/>
    <path class="cls-9" d="m1131.74,112.12s.04.04.06.06c-.01-.03-.03-.06-.04-.09-1.43.61-5.7,1.85-6.53,3.53,1.41.21,5.88-2.22,6.52-3.51Z"/>
    <path class="cls-9" d="m1086.73,225.44c0-.08-.03-.11-.1-.1,0,.03-.02.06-.03.09.04,0,.09,0,.13,0Z"/>
    <path class="cls-9" d="m1122.62,120.99c1.47,2.93,10.33-.43,12.85-.72-7.8-.02-18.3,2.53-7.98-7.45-.06.02-.12.04-.17.06-3.18,1.22-6.62,4.09-4.69,8.12Z"/>
    <path class="cls-9" d="m1119.72,108.11c.28.34.53.28.77-.19-.35-.32-.6-.26-.77.19Z"/>
  </g>
</svg>