<svg xmlns="http://www.w3.org/2000/svg" id="Layer_1" viewBox="0 0 1366 560"><defs><style>.cls-3{fill:#034b25}.cls-5{fill:#9d1f60}.cls-3,.cls-5{stroke-width:0}</style></defs><path d="M249.04 432.67c2.73-.81 5.67-1.32 9.12-1.32 6.08 0 10.74 1.62 13.67 4.66 2.53 2.53 4.05 6.38 4.05 11.24 0 7.5-4.25 12.86-10.84 15.29v.2c7.9 2.03 12.96 8.31 12.96 18.13 0 5.57-1.82 10.23-4.76 13.57-3.75 4.36-9.72 5.77-15.4 5.77-4.96 0-7.29-.3-8.81-.61v-66.95Zm4.36 28.56h4.05c7.29 0 13.88-5.47 13.88-13.57 0-7.09-3.24-12.56-13.37-12.56-2.03 0-3.55.2-4.56.51v25.62Zm0 34.84c1.01.2 2.53.41 4.56.41 9.72 0 15.5-5.57 15.5-15.6 0-10.94-7.7-16-16.31-16.1h-3.75v31.3ZM314.07 475.62c0 17.93-7.19 25.12-14.69 25.12-6.89 0-14.08-7.19-14.08-25.12s7.19-25.12 14.79-25.12c6.89 0 13.98 7.19 13.98 25.12Zm-24.21 0c0 7.9 1.52 21.27 9.93 21.27s9.72-13.37 9.72-21.27-1.52-21.27-9.93-21.27-9.72 13.37-9.72 21.27ZM321.67 494.15c1.62 1.11 4.25 2.53 7.29 2.53 5.06 0 8.41-3.44 8.41-8.81 0-4.35-1.32-7.6-6.58-11.34-5.37-3.85-9.83-7.5-9.83-13.78 0-7.39 5.67-12.26 11.85-12.26 3.65 0 6.28 1.42 7.9 2.63l-1.92 3.54c-1.82-1.42-3.75-2.33-6.28-2.33-4.66 0-7.19 3.75-7.19 7.5 0 3.95 1.32 6.18 6.28 9.82 4.66 3.34 10.23 7.39 10.23 14.99 0 9.62-6.38 13.88-13.07 13.88-3.24 0-6.69-1.11-8.71-2.84l1.62-3.54ZM371.9 494.35h-.41c-1.42 3.55-4.86 6.38-9.42 6.38-6.89 0-13.78-7.09-13.78-24.92s7.29-25.32 14.69-25.32c2.94 0 6.69 1.32 9.12 6.79h.2l.2-5.98h4.15c-.1 2.63-.41 6.48-.41 14.99v53.08h-4.36v-25.02Zm0-24.71c0-1.11 0-2.33-.1-3.44-.51-6.38-4.36-11.85-8.71-11.85-7.7 0-10.23 10.43-10.23 21.47s2.73 21.07 10.03 21.07c2.73 0 6.58-1.52 8.71-10.43.3-1.42.3-3.24.3-4.76v-12.05ZM413.23 487.67c0 5.47.3 9.22.41 12.26h-3.95l-.41-5.06h-.2c-1.01 1.82-4.56 5.88-9.93 5.88-8 0-11.14-6.48-11.14-17.93v-31.5h4.36v30.59c0 8.41 1.22 15.09 7.6 15.09s8.41-5.88 8.71-8.51c.2-1.52.2-2.94.2-4.46v-32.72h4.36v36.36ZM427 473.79c0 19.55 6.79 22.89 12.26 22.89 3.14 0 5.67-.81 7.29-1.92l1.01 3.34c-2.33 1.62-5.87 2.43-9.12 2.43-10.64 0-15.9-10.03-15.9-24.71s5.57-25.32 14.48-25.32c9.62 0 12.26 11.85 12.26 20.46v2.84H427Zm17.62-3.55c.2-11.95-4.76-15.9-8.31-15.9-5.67 0-8.71 8.1-9.22 15.9h17.52ZM499.42 429.83V490c0 2.43.3 8.1.41 9.93h-3.75l-.41-6.48h-.41c-1.42 3.44-4.66 7.29-10.23 7.29-6.89 0-13.57-7.29-13.57-24.92s7.09-25.32 14.08-25.32c3.14 0 6.99 1.32 9.32 6.28h.2v-26.94h4.36Zm-4.36 39.81c0-1.11 0-2.33-.1-3.44-.41-6.38-4.36-11.85-8.81-11.85-7.6 0-10.13 10.43-10.13 21.27s2.73 21.27 9.52 21.27c2.84 0 7.09-1.52 9.32-10.84.2-1.01.2-2.23.2-3.34v-13.07ZM513.3 473.79c0 19.55 6.79 22.89 12.26 22.89 3.14 0 5.67-.81 7.29-1.92l1.01 3.34c-2.33 1.62-5.87 2.43-9.12 2.43-10.64 0-15.9-10.03-15.9-24.71s5.57-25.32 14.48-25.32c9.62 0 12.26 11.85 12.26 20.46v2.84H513.3Zm17.62-3.55c.2-11.95-4.76-15.9-8.31-15.9-5.67 0-8.71 8.1-9.22 15.9h17.52ZM577.81 499.93l-.41-5.37h-.3c-1.82 3.75-4.96 6.18-9.12 6.18-5.98 0-10.74-5.06-10.74-13.37 0-11.75 8.81-17.22 19.85-17.32v-1.82c0-8.31-1.32-13.88-8.41-13.88-2.43 0-4.96.91-6.89 2.33l-1.22-3.34c1.62-1.42 5.37-2.84 9.01-2.84 6.58 0 11.85 3.85 11.85 15.5v22.99c0 3.55 0 7.9.4 10.94h-4.05Zm-.71-26.13c-3.75 0-15.29.3-15.29 13.27 0 7.29 3.54 9.82 6.79 9.82 4.15 0 7.39-3.34 8.31-9.22.2-1.11.2-2.23.2-3.14v-10.74ZM592.81 451.31l7.7 30.79c.71 2.63 1.62 6.99 2.23 10.74h.3c.51-3.44 1.42-7.6 2.13-10.74l7.39-30.79h4.46l-12.56 48.62h-3.65l-12.36-48.62h4.36ZM625.62 473.79c0 19.55 6.79 22.89 12.26 22.89 3.14 0 5.67-.81 7.29-1.92l1.01 3.34c-2.33 1.62-5.87 2.43-9.12 2.43-10.64 0-15.9-10.03-15.9-24.71s5.57-25.32 14.48-25.32c9.62 0 12.26 11.85 12.26 20.46v2.84h-22.28Zm17.62-3.55c.2-11.95-4.76-15.9-8.31-15.9-5.67 0-8.71 8.1-9.22 15.9h17.52ZM654.89 494.15c1.62 1.11 4.25 2.53 7.29 2.53 5.06 0 8.41-3.44 8.41-8.81 0-4.35-1.32-7.6-6.58-11.34-5.37-3.85-9.83-7.5-9.83-13.78 0-7.39 5.67-12.26 11.85-12.26 3.65 0 6.28 1.42 7.9 2.63l-1.92 3.54c-1.82-1.42-3.75-2.33-6.28-2.33-4.66 0-7.19 3.75-7.19 7.5 0 3.95 1.32 6.18 6.28 9.82 4.66 3.34 10.23 7.39 10.23 14.99 0 9.62-6.38 13.88-13.07 13.88-3.24 0-6.69-1.11-8.71-2.84l1.62-3.54Z" class="cls-5"/><text style="fill:#034b25;font-family:BebasNeueRounded-Regular,&quot;Bebas Neue Rounded&quot;;font-size:127.25px" transform="translate(27.56 126.44)"><tspan x="0" y="0">Finca</tspan></text><text style="font-size:300.72px;fill:#034b25;font-family:BebasNeueRounded-Regular,&quot;Bebas Neue Rounded&quot;" transform="translate(19.07 364.13)"><tspan x="0" y="0">G</tspan><tspan x="117.58" y="0" style="letter-spacing:0">u</tspan><tspan x="237.87" y="0">arumo</tspan></text><path d="M1087.42 225.9s-.08-.09-.13-.13c-.09.08-.07.15.06.22l.06-.09ZM1103.17 286.56c-.13.17-.12.33.03.47.02-.06.04-.13.07-.23-.03-.07-.06-.16-.1-.25Z" class="cls-3"/><path d="M1279.23 275.46c-41.07-31.93-97.84-42.68-147.72-27.82 24.5-8.89 51.2-8.81 77.27-8.95 26.07-.13 52.87-.73 76.91-10.81s44.96-31.9 46.19-57.94c1.18-25.03-16.82-48.59-40.03-58.04s-50.22-6.26-72.94 4.28c-22.73 10.55-41.69 27.84-58.32 46.57-16.64 18.74-31.32 39.14-47.96 57.87a481.844 481.844 0 0 0 70.63-109.5c5.41-11.57 10.46-24.41 7.41-36.82-3.19-12.98-15.2-22.68-28.29-25.39-13.09-2.72-26.89.74-38.62 7.15-32.84 17.95-49.8 60.59-38.26 96.19 5.73-22.99 22.89-42.83 44.82-51.81-2.03 4.35-4.07 8.7-6.1 13.06 16.99-9.92 38.87-10.93 56.7-2.62-14.57-7.15-32.44 4.13-39.59 18.69-7.16 14.56-7.21 31.44-10.07 47.41-3.85 21.51-13.11 42.04-26.68 59.17-.16 0-.98 46.75-1.07 51-.17 8.09-.9 16.39-.72 24.45.16 7.44 1.89 15.82 3.38 23.19 1.67 8.22 3.72 16.36 6.14 24.39a272.76 272.76 0 0 0 18.45 45.82c6.75 13.18 15.05 26.28 27.68 34 12.63 7.72 30.6 8.44 41.19-1.9 7.4-7.23 9.86-18.41 8.64-28.68s-5.66-19.86-10.42-29.05a379.498 379.498 0 0 0-70.96-96.06c34.13 24.55 68.26 49.11 102.4 73.66 17.58 12.65 38.89 25.95 59.44 19.11 19.27-6.41 29.21-29.63 25.72-49.64-3.48-20.01-17.42-36.73-33.25-49.45-.64-.52-1.29-1.03-1.94-1.54ZM1150.58 99.1c8.45-3.19 28-3.93 31.58 7.08-5.01-10.18-23.28-4.59-31.58-7.08ZM1092.72 311.02h.02v.01s0-.01-.01-.02c-.36-.06-.73-.11-1.09-.17 0 2.06-.02 3.72-1.47 5.3h.01l-.03.02c.42.22.5.42.24.59-.17-.2-.33-.41-.5-.61-1.83-1.91-2.15-1.63-2.17-4.2-.72.05-1.59.1-2.19.34-.26-29.57-2.43-61.94.88-91.27.13.09.24.18.37.28.05-.65.09-1.31.21-1.95.4-4.08.55-8.15.1-12.28-.23-2.07-1.06-3.97-1.84-5.89-.26 6.24-.83 12.46-1.88 18.65-3.56-30.71-15.46-60.42-34.1-85.09-9.25-12.24-22.27-24.14-37.58-23.07-14.82 1.04-26.58 15.05-28.22 29.82-1.64 14.76 5.14 29.47 14.98 40.6 9.84 11.13 22.52 19.28 35.04 27.29-13.09-4.25-26.52-8.51-40.27-7.93-13.74.59-28.08 7.04-34.28 19.32-6.82 13.52-1.72 31 9.44 41.23 11.16 10.23 27.03 14.03 42.16 13.5 15.13-.53 29.82-4.96 44.3-9.36-19.56 18.67-39.12 37.33-58.67 56-5.62 5.36-11.6 13.78-6.98 20.01 2.72 3.67 8.18 4.35 12.48 2.8 4.3-1.54 7.72-4.81 11-8l58.59-56.87a602.054 602.054 0 0 0-41.96 78.76c-3.68 8.36-7.23 17.05-7.45 26.18-.22 9.13 3.59 18.9 11.55 23.37 8.89 4.99 20.6 1.98 28.28-4.72 7.68-6.7 12.07-16.35 15.6-25.91 7.93-21.53 12.5-44.06 16.26-66.74-.19-.36-.36-.75-.47-1.23-.78.23-.89.64-.35 1.21Z" class="cls-3"/><path d="m1132.54 102.72-.08-.08h.09c0 .03 0 .05-.01.08ZM1139.82 107.21c-.06-.18.03-.25.28-.22 0 .05.01.1.02.17-.1.02-.2.03-.3.05ZM1141.37 107.08c-.01-.13-.03-.26-.04-.39h1.49l-1.45.39ZM1178.89 106.63l-.04-.03h.04v-.23h-.25v-.04c.09.02.21-.03.25.03v-.04c.08.07.17.32.25.27h-.24v.03ZM1092.78 311.82c.14.13.3.25.42.39l-.42-.39ZM1085.83 313.05l.01.05-.03-.05h.02zM1085.15 312.61l.02.02c.01-.13.24-.24.33-.36 0 .12-.24.24-.33.36-.02.02-.04.03-.07.05.02-.02.03-.05.05-.07ZM1103.28 307.09c-.12-.16-.25-.32-.37-.48l.46.38s-.06.07-.09.1ZM1104.98 277.22l-.05-.03.05-.03v.06zM1102.86 293.57h.02v-.1c0 .03 0 .07-.01.1ZM1102.85 293.15c.02.11 0 .22.02.32 0-.06.01-.11.02-.17-.01-.05-.03-.1-.04-.16ZM1101.82 311.05s-.06.03-.09.05c.06.1.12.21.17.31.09.1.22.16.27.28a.836.836 0 0 1-.35-.64ZM1119.31 110.98c2.02-.04 3.19-1 3.54-2.91-.54-6.63-8.11 2.82-3.54 2.91Zm.93-.83c-.59-.59-.97-.96-1.35-1.34.95-1.73 1.97-1.85 3.08-.36-.51.51-1.03 1.01-1.73 1.7ZM1101.16 292.42v-.18c-.2.05-.19.12 0 .18Z" class="cls-3"/><path d="M1117.27 109.91c.04.14.08.27.11.41l.13-.04c-.46-.49-.09-1.23-.56-1.81-5.39 7.08.33 1.41.32 1.44ZM1131.74 112.12l.06.06c-.01-.03-.03-.06-.04-.09-1.43.61-5.7 1.85-6.53 3.53 1.41.21 5.88-2.22 6.52-3.51ZM1086.73 225.44c0-.08-.03-.11-.1-.1 0 .03-.02.06-.03.09h.13Z" class="cls-3"/><path d="M1122.62 120.99c1.47 2.93 10.33-.43 12.85-.72-7.8-.02-18.3 2.53-7.98-7.45-.06.02-.12.04-.17.06-3.18 1.22-6.62 4.09-4.69 8.12ZM1119.72 108.11c.28.34.53.28.77-.19-.35-.32-.6-.26-.77.19Z" class="cls-3"/></svg>