<svg xmlns="http://www.w3.org/2000/svg" viewBox="0 0 121.09 121.74"><path fill="#fafafa" d="M60.28 26.37v-.02h-.02l.02.02ZM64.74 25.47c2.05.62 6.57-.77 7.81 1.75-.89-2.72-5.72-2.54-7.81-1.75ZM71.68 27.27h.06v.06h.06c-.02.01-.04-.05-.06-.07 0-.02-.04 0-.06 0ZM52.96 76.76l.09.12.02-.02-.11-.09ZM62.46 27.41l.27-.06h-.27v.06ZM50.44 77.86v-.01.01z"/><path fill="#fafafa" d="M60.29 2.8C28.16 2.8 2.12 28.84 2.12 60.96s26.04 58.17 58.17 58.17 58.17-26.04 58.17-58.17S92.41 2.8 60.29 2.8ZM46.63 94.36c-.87 2.36-1.96 4.75-3.85 6.4-1.9 1.66-4.79 2.4-6.99 1.17-1.97-1.11-2.91-3.52-2.85-5.78.05-2.26.93-4.4 1.84-6.47a149.42 149.42 0 0 1 10.37-19.47L30.67 84.27c-.81.79-1.65 1.59-2.72 1.98-1.06.38-2.41.21-3.08-.69-1.14-1.54.34-3.62 1.72-4.95l14.5-13.84c-3.58 1.09-7.21 2.18-10.95 2.31-3.74.13-7.66-.81-10.42-3.34s-4.02-6.85-2.33-10.19c1.53-3.04 5.08-4.63 8.47-4.78s6.72.91 9.95 1.96c-3.09-1.98-6.23-3.99-8.66-6.75s-4.11-6.39-3.7-10.03 3.31-7.11 6.97-7.37c3.78-.26 7 2.68 9.29 5.7 4.61 6.1 7.55 13.44 8.43 21.03.26-1.53.4-3.07.46-4.61.19.47.4.94.45 1.46.11 1.02.07 2.03-.02 3.04-.03.16-.04.32-.05.48-.03-.02-.06-.05-.09-.07-.82 7.25-.28 15.25-.22 22.56.15-.06.36-.07.54-.08 0 .63.08.56.54 1.04l.12.15c.06-.04.04-.09-.06-.15.36-.39.36-.8.36-1.31.09.01.18.03.27.04-.13-.14-.11-.24.09-.3.03.12.07.21.11.3-.93 5.6-2.06 11.17-4.02 16.5Zm2.51-37.54s-.01.02-.02.02c-.03-.02-.04-.04-.02-.05l.03.03Zm-.17-.11h-.03v-.02c.02 0 .03 0 .03.02Zm3.57 16.56s-.05-.03 0-.04v.04Zm.18 4.69s-.03-.05-.04-.08c0 0 .02 0 .02-.01 0 .07.03.12.09.16-.01-.03-.04-.05-.07-.07Zm46.17 15.99c-5.08 1.69-10.35-1.6-14.69-4.72-8.44-6.07-16.87-12.14-25.31-18.21a93.962 93.962 0 0 1 17.54 23.74c1.18 2.27 2.27 4.64 2.58 7.18.3 2.54-.31 5.3-2.14 7.09-2.62 2.56-7.06 2.38-10.18.47s-5.17-5.15-6.84-8.4a66.91 66.91 0 0 1-4.56-11.33c-.6-1.99-1.1-4-1.52-6.03-.37-1.82-.8-3.89-.84-5.73-.04-1.99.14-4.04.18-6.04.02-1.05.23-12.61.26-12.61 1.42-1.79 2.63-3.73 3.65-5.78-.55.65-1.09 1.31-1.65 1.94.58-.68 1.15-1.38 1.72-2.07 1.36-2.76 2.34-5.69 2.88-8.72.71-3.95.72-8.12 2.49-11.72 1.64-3.35 5.58-5.99 9.02-4.92-2.76-1.1-5.83-1.34-8.74-.74h.1c-.12.03-.24.06-.36.1v-.04c-1.48.33-2.92.86-4.24 1.63.5-1.08 1.01-2.15 1.51-3.23-5.42 2.22-9.66 7.12-11.08 12.81-2.85-8.8 1.34-19.34 9.46-23.77 2.9-1.58 6.31-2.44 9.55-1.77 3.24.67 6.21 3.07 6.99 6.28.75 3.07-.49 6.24-1.83 9.1-4.18 8.94-9.49 17.35-15.74 24.99-.02.04-.04.09-.06.13 3.45-4.08 6.65-8.37 10.2-12.36 4.11-4.63 8.8-8.91 14.42-11.51 5.62-2.61 12.29-3.39 18.03-1.06s10.19 8.16 9.9 14.34c-.3 6.44-5.47 11.83-11.42 14.32-5.94 2.49-12.57 2.64-19.01 2.67-6.44.03-13.04.01-19.1 2.21 12.33-3.67 26.36-1.02 36.51 6.88.16.13.32.25.48.38 3.91 3.14 7.36 7.28 8.22 12.22.86 4.95-1.59 10.68-6.36 12.27Zm-45.93-20.4v-.11c0 .01 0 .03.01.04v.06Zm.07-1.73s.02.04.02.06c0 .02-.01.04-.02.06-.04-.04-.04-.07 0-.12Zm3.41-44.02c.12.14.03.32.14.45h-.03l-.03-.09s-1.41 1.39-.08-.36Zm4.58 2.91c-.62.07-2.81.9-3.18.18-.48-1 .37-1.7 1.16-2.01.01 0 .03 0 .04-.01-2.55 2.47.05 1.84 1.97 1.84Zm-.92-2.02s0 .01.01.02c0 0 0-.01-.01-.02-.16.32-1.26.92-1.61.87.21-.42 1.26-.72 1.61-.87Zm-3.08-.28c-1.13-.02.74-2.36.87-.72-.08.47-.38.71-.87.72Z"/><path fill="#fafafa" d="M56.91 27.87c.09.09.19.18.33.33.17-.17.3-.3.43-.42-.27-.37-.53-.34-.76.09Zm.21-.17c.04-.11.1-.13.19-.05-.06.12-.12.13-.19.05ZM62.08 27.48s.05 0 .07-.01v-.04c-.06 0-.08 0-.07.05ZM71.74 27.34v-.01h-.01l.01.01zM53.47 69.5v-.01h-.01l.01.01z"/></svg>