<?xml version="1.0" encoding="utf-8"?>
<!-- Generator: Adobe Illustrator 28.0.0, SVG Export Plug-In . SVG Version: 6.00 Build 0)  -->
<svg version="1.1" id="Layer_1" xmlns="http://www.w3.org/2000/svg" xmlns:xlink="http://www.w3.org/1999/xlink" x="0px" y="0px"
	 viewBox="0 0 1366 560" style="enable-background:new 0 0 1366 560;" xml:space="preserve">
<style type="text/css">
	.st0{fill:#9D1F60;}
	.st1{enable-background:new    ;}
	.st2{fill:#034B25;}
</style>
<path class="st0" d="M249,432.7c2.7-0.8,5.7-1.3,9.1-1.3c6.1,0,10.7,1.6,13.7,4.7c2.5,2.5,4,6.4,4,11.2c0,7.5-4.2,12.9-10.8,15.3
	v0.2c7.9,2,13,8.3,13,18.1c0,5.6-1.8,10.2-4.8,13.6c-3.8,4.4-9.7,5.8-15.4,5.8c-5,0-7.3-0.3-8.8-0.6L249,432.7L249,432.7z
	 M253.4,461.2h4c7.3,0,13.9-5.5,13.9-13.6c0-7.1-3.2-12.6-13.4-12.6c-2,0-3.6,0.2-4.6,0.5V461.2z M253.4,496.1
	c1,0.2,2.5,0.4,4.6,0.4c9.7,0,15.5-5.6,15.5-15.6c0-10.9-7.7-16-16.3-16.1h-3.8V496.1L253.4,496.1z M314.1,475.6
	c0,17.9-7.2,25.1-14.7,25.1c-6.9,0-14.1-7.2-14.1-25.1s7.2-25.1,14.8-25.1C307,450.5,314.1,457.7,314.1,475.6L314.1,475.6z
	 M289.9,475.6c0,7.9,1.5,21.3,9.9,21.3s9.7-13.4,9.7-21.3s-1.5-21.3-9.9-21.3S289.9,467.7,289.9,475.6z M321.7,494.1
	c1.6,1.1,4.2,2.5,7.3,2.5c5.1,0,8.4-3.4,8.4-8.8c0-4.4-1.3-7.6-6.6-11.3c-5.4-3.9-9.8-7.5-9.8-13.8c0-7.4,5.7-12.3,11.9-12.3
	c3.6,0,6.3,1.4,7.9,2.6l-1.9,3.5c-1.8-1.4-3.8-2.3-6.3-2.3c-4.7,0-7.2,3.8-7.2,7.5c0,4,1.3,6.2,6.3,9.8c4.7,3.3,10.2,7.4,10.2,15
	c0,9.6-6.4,13.9-13.1,13.9c-3.2,0-6.7-1.1-8.7-2.8L321.7,494.1L321.7,494.1z M371.9,494.4h-0.4c-1.4,3.5-4.9,6.4-9.4,6.4
	c-6.9,0-13.8-7.1-13.8-24.9s7.3-25.3,14.7-25.3c2.9,0,6.7,1.3,9.1,6.8h0.2l0.2-6h4.1c-0.1,2.6-0.4,6.5-0.4,15v53.1h-4.4L371.9,494.4
	L371.9,494.4z M371.9,469.6c0-1.1,0-2.3-0.1-3.4c-0.5-6.4-4.4-11.9-8.7-11.9c-7.7,0-10.2,10.4-10.2,21.5s2.7,21.1,10,21.1
	c2.7,0,6.6-1.5,8.7-10.4c0.3-1.4,0.3-3.2,0.3-4.8L371.9,469.6L371.9,469.6z M413.2,487.7c0,5.5,0.3,9.2,0.4,12.3h-4l-0.4-5.1h-0.2
	c-1,1.8-4.6,5.9-9.9,5.9c-8,0-11.1-6.5-11.1-17.9v-31.5h4.4v30.6c0,8.4,1.2,15.1,7.6,15.1s8.4-5.9,8.7-8.5c0.2-1.5,0.2-2.9,0.2-4.5
	v-32.7h4.4L413.2,487.7L413.2,487.7z M427,473.8c0,19.5,6.8,22.9,12.3,22.9c3.1,0,5.7-0.8,7.3-1.9l1,3.3c-2.3,1.6-5.9,2.4-9.1,2.4
	c-10.6,0-15.9-10-15.9-24.7s5.6-25.3,14.5-25.3c9.6,0,12.3,11.9,12.3,20.5v2.8L427,473.8L427,473.8z M444.6,470.2
	c0.2-12-4.8-15.9-8.3-15.9c-5.7,0-8.7,8.1-9.2,15.9H444.6L444.6,470.2z M499.4,429.8V490c0,2.4,0.3,8.1,0.4,9.9h-3.8l-0.4-6.5h-0.4
	c-1.4,3.4-4.7,7.3-10.2,7.3c-6.9,0-13.6-7.3-13.6-24.9s7.1-25.3,14.1-25.3c3.1,0,7,1.3,9.3,6.3h0.2v-26.9L499.4,429.8L499.4,429.8z
	 M495.1,469.6c0-1.1,0-2.3-0.1-3.4c-0.4-6.4-4.4-11.9-8.8-11.9c-7.6,0-10.1,10.4-10.1,21.3s2.7,21.3,9.5,21.3
	c2.8,0,7.1-1.5,9.3-10.8c0.2-1,0.2-2.2,0.2-3.3V469.6L495.1,469.6z M513.3,473.8c0,19.5,6.8,22.9,12.3,22.9c3.1,0,5.7-0.8,7.3-1.9
	l1,3.3c-2.3,1.6-5.9,2.4-9.1,2.4c-10.6,0-15.9-10-15.9-24.7s5.6-25.3,14.5-25.3c9.6,0,12.3,11.9,12.3,20.5v2.8L513.3,473.8
	L513.3,473.8z M530.9,470.2c0.2-12-4.8-15.9-8.3-15.9c-5.7,0-8.7,8.1-9.2,15.9H530.9L530.9,470.2z M577.8,499.9l-0.4-5.4h-0.3
	c-1.8,3.8-5,6.2-9.1,6.2c-6,0-10.7-5.1-10.7-13.4c0-11.8,8.8-17.2,19.8-17.3v-1.8c0-8.3-1.3-13.9-8.4-13.9c-2.4,0-5,0.9-6.9,2.3
	l-1.2-3.3c1.6-1.4,5.4-2.8,9-2.8c6.6,0,11.8,3.9,11.8,15.5v23c0,3.5,0,7.9,0.4,10.9L577.8,499.9L577.8,499.9z M577.1,473.8
	c-3.8,0-15.3,0.3-15.3,13.3c0,7.3,3.5,9.8,6.8,9.8c4.2,0,7.4-3.3,8.3-9.2c0.2-1.1,0.2-2.2,0.2-3.1L577.1,473.8L577.1,473.8z
	 M592.8,451.3l7.7,30.8c0.7,2.6,1.6,7,2.2,10.7h0.3c0.5-3.4,1.4-7.6,2.1-10.7l7.4-30.8h4.5l-12.6,48.6h-3.7l-12.4-48.6H592.8z
	 M625.6,473.8c0,19.5,6.8,22.9,12.3,22.9c3.1,0,5.7-0.8,7.3-1.9l1,3.3c-2.3,1.6-5.9,2.4-9.1,2.4c-10.6,0-15.9-10-15.9-24.7
	s5.6-25.3,14.5-25.3c9.6,0,12.3,11.9,12.3,20.5v2.8L625.6,473.8L625.6,473.8z M643.2,470.2c0.2-12-4.8-15.9-8.3-15.9
	c-5.7,0-8.7,8.1-9.2,15.9H643.2L643.2,470.2z M654.9,494.1c1.6,1.1,4.2,2.5,7.3,2.5c5.1,0,8.4-3.4,8.4-8.8c0-4.4-1.3-7.6-6.6-11.3
	c-5.4-3.9-9.8-7.5-9.8-13.8c0-7.4,5.7-12.3,11.8-12.3c3.7,0,6.3,1.4,7.9,2.6l-1.9,3.5c-1.8-1.4-3.8-2.3-6.3-2.3
	c-4.7,0-7.2,3.8-7.2,7.5c0,4,1.3,6.2,6.3,9.8c4.7,3.3,10.2,7.4,10.2,15c0,9.6-6.4,13.9-13.1,13.9c-3.2,0-6.7-1.1-8.7-2.8
	L654.9,494.1L654.9,494.1z"/>
<g class="st1">
	<path class="st2" d="M32.8,120.2V44.4c0-4.1,2.9-7,7-7h24.4c3.7,0,6.4,2.7,6.4,6.4s-2.7,6.4-6.4,6.4H46.8v24.8h12.5
		c3.7,0,6.4,2.7,6.4,6.4c0,3.7-2.7,6.4-6.4,6.4H46.8v32.6c0,4.1-2.9,7-7,7S32.8,124.3,32.8,120.2z"/>
	<path class="st2" d="M76.6,120.2V43.6c0-4.1,2.9-7,7-7s7,2.9,7,7v76.6c0,4.1-2.9,7-7,7S76.6,124.3,76.6,120.2z"/>
	<path class="st2" d="M101,121V46.9c0-6.4,3.6-10.3,9.2-10.3c6,0,8.9,3.6,10.4,9.3l11.6,45h0.3V42.8c0-3.9,2.3-6.2,6.2-6.2
		c3.9,0,6.2,2.3,6.2,6.2v76.2c0,6.1-3.1,8.1-7.4,8.1c-4.8,0-7.3-2.4-8.8-8.3l-15-57.8h-0.3V121c0,3.9-2.3,6.2-6.2,6.2
		C103.3,127.2,101,124.9,101,121z"/>
	<path class="st2" d="M154.4,105.8V58c0-13.7,7.1-21.9,20.6-21.9s20.6,8.1,20.6,21.9v3.6c0,3.9-2.7,6.6-6.6,6.6
		c-3.9,0-6.6-2.7-6.6-6.6v-4.5c0-5.9-2.8-8.3-7-8.3c-4.2,0-7,2.4-7,8.3v49.8c0,5.9,2.8,8.1,7,8.1c4.2,0,7-2.3,7-8.1v-7.8
		c0-3.9,2.7-6.6,6.6-6.6c3.9,0,6.6,2.5,6.6,6.6v6.7c0,13.7-7.1,21.9-20.6,21.9S154.4,119.6,154.4,105.8z"/>
	<path class="st2" d="M201.1,120.3c0-0.8,0.1-1.5,0.3-2.3l12.1-72.4c1-5.9,5.1-9.5,10.9-9.5c5.9,0,9.8,3.7,10.8,9.5l12.1,72.4
		c0.1,0.8,0.1,1.4,0.1,2c0,4.3-2.3,7.1-6.4,7.1c-4.2,0-6.6-2.7-7.3-6.7l-1.7-11.7v0.3h-16.7l-1.7,11.7c-0.6,4.5-3.1,6.5-6.6,6.5
		C203.9,127.2,201.1,125,201.1,120.3z M230.5,96.9l-6.6-45.3h-0.3l-6.5,45.3H230.5z"/>
</g>
<g class="st1">
	<path class="st2" d="M29,314.2V203.5c0-33.7,16.8-52.9,49.3-52.9c32.5,0,49.3,19.2,49.3,52.9v4.2c0,9-6.6,15.6-15.6,15.6
		c-9,0-15.6-6.6-15.6-15.6v-6.3c0-15-6.6-20.8-17.1-20.8s-17.1,5.7-17.1,20.8v115.2c0,15,6.6,20.4,17.1,20.4s17.1-5.4,17.1-20.4
		v-41.2H93c-8.7,0-15-6.3-15-15c0-8.7,6.3-15,15-15h18c9.6,0,16.5,6.9,16.5,16.5v52.3c0,33.7-16.8,52.9-49.3,52.9
		C45.8,367.1,29,347.9,29,314.2z"/>
</g>
<g class="st1">
	<path class="st2" d="M147.8,314.2V168.4c0-10.5,6-16.5,16.5-16.5c10.5,0,16.5,6,16.5,16.5v148.3c0,15,6.3,20.4,16.8,20.4
		c10.5,0,16.8-5.4,16.8-20.4V167.8c0-10.2,5.7-15.9,15.9-15.9s15.9,5.7,15.9,15.9v146.5c0,33.7-16.8,52.9-49.3,52.9
		C164.6,367.1,147.8,347.9,147.8,314.2z"/>
</g>
<g class="st1">
	<path class="st2" d="M262.4,349.7c0-1.8,0.3-3.6,0.6-5.4l28.6-171.1c2.4-13.8,12-22.6,25.9-22.6s23.2,8.7,25.6,22.6l28.6,171.1
		c0.3,1.8,0.3,3.3,0.3,4.8c0,10.2-5.4,16.8-15,16.8c-9.9,0-15.6-6.3-17.1-15.9l-3.9-27.7v0.6h-39.4l-3.9,27.7
		c-1.5,10.5-7.2,15.3-15.6,15.3C269,365.9,262.4,360.8,262.4,349.7z M331.8,294.4l-15.6-107.1h-0.6l-15.3,107.1H331.8z"/>
	<path class="st2" d="M389.9,349.4V170.2c0-10.5,6-16.5,16.5-16.5h32.5c34.3,0,49,15.9,49,48.4V215c0,21.7-6.9,35.5-21.7,41.5v0.6
		c16.5,5.1,22,20.8,22,44.5v32.8c0,5.7,0.3,8.7,1.2,12.3c0.9,3.3,1.2,5.1,1.2,8.1c0,7.2-5.7,11.1-15.6,11.1
		c-13.5,0-19.8-6.9-19.8-25.9v-40.3c0-19.5-5.7-25.9-20.8-25.9h-11.4v75.5c0,10.5-6,16.5-16.5,16.5S389.9,359.9,389.9,349.4z
		 M435,243.8c12.3,0,19.8-5.4,19.8-22.3v-16.2c0-15-5.1-21.7-16.8-21.7h-15v60.1H435z"/>
	<path class="st2" d="M509.8,314.2V168.4c0-10.5,6-16.5,16.5-16.5c10.5,0,16.5,6,16.5,16.5v148.3c0,15,6.3,20.4,16.8,20.4
		c10.5,0,16.8-5.4,16.8-20.4V167.8c0-10.2,5.7-15.9,15.9-15.9c10.2,0,15.9,5.7,15.9,15.9v146.5c0,33.7-16.8,52.9-49.3,52.9
		C526.7,367.1,509.8,347.9,509.8,314.2z"/>
	<path class="st2" d="M631.9,351.5V178.3c0-16.2,8.4-26.5,23.8-26.5c15.3,0,24.4,7.8,26.5,23.2l18,129.9h0.6l18.3-130.5
		c2.1-14.7,10.2-22.6,25.3-22.6c15.6,0,24.7,10.2,24.7,25.9v172.6c0,9.9-5.7,15.6-15.6,15.6s-15.6-5.7-15.6-15.6V202.9h-0.6
		l-22.3,148.3c-1.2,9-6.6,14.1-15.6,14.1c-9,0-14.4-5.1-15.6-14.1l-22.3-148.3h-0.6v148.6c0,9.3-5.1,14.4-14.4,14.4
		S631.9,360.8,631.9,351.5z"/>
	<path class="st2" d="M791.3,314.2V203.5c0-33.7,17.7-52.9,50.2-52.9c32.5,0,50.2,19.2,50.2,52.9v110.7c0,33.7-17.7,52.9-50.2,52.9
		C809.1,367.1,791.3,347.9,791.3,314.2z M858.7,316.3V201.4c0-15-6.6-20.8-17.1-20.8c-10.5,0-17.1,5.7-17.1,20.8v114.9
		c0,15,6.6,20.8,17.1,20.8C852.1,337.1,858.7,331.4,858.7,316.3z"/>
</g>
<path class="st2" d="M1087.4,225.9c0,0-0.1-0.1-0.1-0.1C1087.2,225.8,1087.2,225.9,1087.4,225.9L1087.4,225.9L1087.4,225.9z
	 M1103.2,286.6c-0.1,0.2-0.1,0.3,0,0.5c0-0.1,0-0.1,0.1-0.2C1103.2,286.7,1103.2,286.6,1103.2,286.6L1103.2,286.6z"/>
<path class="st2" d="M1279.2,275.5c-41.1-31.9-97.8-42.7-147.7-27.8c24.5-8.9,51.2-8.8,77.3-8.9c26.1-0.1,52.9-0.7,76.9-10.8
	s45-31.9,46.2-57.9c1.2-25-16.8-48.6-40-58s-50.2-6.3-72.9,4.3c-22.7,10.6-41.7,27.8-58.3,46.6c-16.6,18.7-31.3,39.1-48,57.9
	c28.4-33.1,52.2-70,70.6-109.5c5.4-11.6,10.5-24.4,7.4-36.8c-3.2-13-15.2-22.7-28.3-25.4c-13.1-2.7-26.9,0.7-38.6,7.2
	c-32.8,17.9-49.8,60.6-38.3,96.2c5.7-23,22.9-42.8,44.8-51.8c-2,4.3-4.1,8.7-6.1,13.1c17-9.9,38.9-10.9,56.7-2.6
	c-14.6-7.2-32.4,4.1-39.6,18.7c-7.2,14.6-7.2,31.4-10.1,47.4c-3.8,21.5-13.1,42-26.7,59.2c-0.2,0-1,46.7-1.1,51
	c-0.2,8.1-0.9,16.4-0.7,24.5c0.2,7.4,1.9,15.8,3.4,23.2c1.7,8.2,3.7,16.4,6.1,24.4c4.8,15.8,10.9,31.1,18.4,45.8
	c6.8,13.2,15.1,26.3,27.7,34s30.6,8.4,41.2-1.9c7.4-7.2,9.9-18.4,8.6-28.7s-5.7-19.9-10.4-29c-18.4-35.6-42.4-68-71-96.1
	c34.1,24.5,68.3,49.1,102.4,73.7c17.6,12.6,38.9,26,59.4,19.1c19.3-6.4,29.2-29.6,25.7-49.6c-3.5-20-17.4-36.7-33.2-49.5
	C1280.6,276.5,1279.9,276,1279.2,275.5L1279.2,275.5z M1150.6,99.1c8.4-3.2,28-3.9,31.6,7.1C1177.1,96,1158.9,101.6,1150.6,99.1z
	 M1092.7,311L1092.7,311L1092.7,311C1092.7,311,1092.7,311,1092.7,311c-0.3-0.1-0.7-0.1-1.1-0.2c0,2.1,0,3.7-1.5,5.3h0l0,0
	c0.4,0.2,0.5,0.4,0.2,0.6c-0.2-0.2-0.3-0.4-0.5-0.6c-1.8-1.9-2.2-1.6-2.2-4.2c-0.7,0-1.6,0.1-2.2,0.3c-0.3-29.6-2.4-61.9,0.9-91.3
	c0.1,0.1,0.2,0.2,0.4,0.3c0.1-0.6,0.1-1.3,0.2-1.9c0.4-4.1,0.6-8.1,0.1-12.3c-0.2-2.1-1.1-4-1.8-5.9c-0.3,6.2-0.8,12.5-1.9,18.6
	c-3.6-30.7-15.5-60.4-34.1-85.1c-9.2-12.2-22.3-24.1-37.6-23.1c-14.8,1-26.6,15.1-28.2,29.8c-1.6,14.8,5.1,29.5,15,40.6
	c9.8,11.1,22.5,19.3,35,27.3c-13.1-4.2-26.5-8.5-40.3-7.9c-13.7,0.6-28.1,7-34.3,19.3c-6.8,13.5-1.7,31,9.4,41.2s27,14,42.2,13.5
	c15.1-0.5,29.8-5,44.3-9.4c-19.6,18.7-39.1,37.3-58.7,56c-5.6,5.4-11.6,13.8-7,20c2.7,3.7,8.2,4.4,12.5,2.8c4.3-1.5,7.7-4.8,11-8
	l58.6-56.9c-15.9,25.2-29.9,51.5-42,78.8c-3.7,8.4-7.2,17-7.5,26.2c-0.2,9.1,3.6,18.9,11.5,23.4c8.9,5,20.6,2,28.3-4.7
	s12.1-16.4,15.6-25.9c7.9-21.5,12.5-44.1,16.3-66.7c-0.2-0.4-0.4-0.8-0.5-1.2C1092.3,310,1092.2,310.4,1092.7,311L1092.7,311z"/>
<path class="st2" d="M1132.5,102.7L1132.5,102.7L1132.5,102.7C1132.6,102.7,1132.6,102.7,1132.5,102.7z M1139.8,107.2
	c-0.1-0.2,0-0.2,0.3-0.2c0,0.1,0,0.1,0,0.2C1140,107.2,1139.9,107.2,1139.8,107.2z M1141.4,107.1c0-0.1,0-0.3,0-0.4h1.5
	L1141.4,107.1z M1178.9,106.6L1178.9,106.6L1178.9,106.6v-0.3h-0.2v0c0.1,0,0.2,0,0.2,0v0c0.1,0.1,0.2,0.3,0.2,0.3L1178.9,106.6
	L1178.9,106.6L1178.9,106.6z M1092.8,311.8c0.1,0.1,0.3,0.2,0.4,0.4L1092.8,311.8z M1085.8,313L1085.8,313L1085.8,313L1085.8,313z
	 M1085.2,312.6L1085.2,312.6c0-0.1,0.3-0.2,0.3-0.3C1085.5,312.4,1085.3,312.5,1085.2,312.6C1085.2,312.6,1085.1,312.7,1085.2,312.6
	C1085.1,312.7,1085.1,312.6,1085.2,312.6L1085.2,312.6z M1103.3,307.1c-0.1-0.2-0.2-0.3-0.4-0.5l0.5,0.4
	C1103.4,307,1103.3,307.1,1103.3,307.1z M1105,277.2L1105,277.2L1105,277.2L1105,277.2z M1102.9,293.6L1102.9,293.6l0-0.1
	C1102.9,293.5,1102.9,293.5,1102.9,293.6L1102.9,293.6z M1102.8,293.1c0,0.1,0,0.2,0,0.3c0-0.1,0-0.1,0-0.2
	C1102.9,293.2,1102.9,293.2,1102.8,293.1L1102.8,293.1z M1101.8,311C1101.8,311,1101.8,311.1,1101.8,311c0,0.1,0,0.3,0.1,0.4
	c0.1,0.1,0.2,0.2,0.3,0.3C1102,311.5,1101.8,311.3,1101.8,311L1101.8,311z M1119.3,111c2,0,3.2-1,3.5-2.9
	C1122.3,101.4,1114.7,110.9,1119.3,111z M1120.2,110.2c-0.6-0.6-1-1-1.3-1.3c0.9-1.7,2-1.8,3.1-0.4
	C1121.5,109,1120.9,109.5,1120.2,110.2z M1101.2,292.4v-0.2C1101,292.3,1101,292.4,1101.2,292.4z"/>
<path class="st2" d="M1117.3,109.9c0,0.1,0.1,0.3,0.1,0.4l0.1,0c-0.5-0.5-0.1-1.2-0.6-1.8C1111.6,115.6,1117.3,109.9,1117.3,109.9
	L1117.3,109.9z M1131.7,112.1L1131.7,112.1C1131.8,112.2,1131.8,112.1,1131.7,112.1c-1.4,0.6-5.7,1.8-6.5,3.5
	C1126.6,115.8,1131.1,113.4,1131.7,112.1L1131.7,112.1z M1086.7,225.4c0-0.1,0-0.1-0.1-0.1c0,0,0,0.1,0,0.1L1086.7,225.4
	L1086.7,225.4z"/>
<path class="st2" d="M1122.6,121c1.5,2.9,10.3-0.4,12.8-0.7c-7.8,0-18.3,2.5-8-7.4c-0.1,0-0.1,0-0.2,0.1
	C1124.1,114.1,1120.7,117,1122.6,121L1122.6,121z M1119.7,108.1c0.3,0.3,0.5,0.3,0.8-0.2C1120.1,107.6,1119.9,107.7,1119.7,108.1z"
	/>
</svg>
