<?xml version="1.0" standalone="no"?>
<!DOCTYPE svg PUBLIC "-//W3C//DTD SVG 20010904//EN"
 "http://www.w3.org/TR/2001/REC-SVG-20010904/DTD/svg10.dtd">
<svg version="1.0" xmlns="http://www.w3.org/2000/svg"
 width="976.000000pt" height="976.000000pt" viewBox="0 0 976.000000 976.000000"
 preserveAspectRatio="xMidYMid meet">
<metadata>
Created by potrace 1.14, written by Peter Selinger 2001-2017
</metadata>
<g transform="translate(0.000000,976.000000) scale(0.100000,-0.100000)"
fill="#000000" stroke="none">
<path d="M4596 9529 c-1003 -57 -1947 -430 -2724 -1078 -661 -550 -1160 -1282
-1433 -2102 -109 -329 -172 -615 -216 -984 -22 -187 -25 -755 -5 -935 45 -405
105 -687 222 -1040 296 -895 877 -1693 1650 -2267 682 -507 1457 -804 2330
-895 166 -17 725 -17 890 0 989 104 1856 473 2590 1103 764 655 1294 1535
1519 2519 160 706 144 1537 -45 2225 -184 670 -475 1234 -912 1770 -134 163
-438 468 -603 606 -486 402 -1062 714 -1644 888 -523 157 -1072 221 -1619 190z
m881 -824 c138 -32 295 -125 392 -230 104 -115 151 -227 158 -385 10 -193 -36
-352 -194 -683 -275 -578 -593 -1098 -1009 -1655 -185 -248 -166 -228 150 163
343 423 475 575 676 776 499 501 923 747 1475 856 70 14 139 18 305 17 236 0
330 -13 512 -74 337 -113 645 -390 779 -700 174 -403 105 -809 -198 -1172
-230 -276 -586 -477 -1016 -572 -297 -67 -519 -84 -1242 -96 -570 -10 -673
-16 -919 -51 -128 -18 -403 -81 -415 -96 -3 -3 7 -3 23 1 93 23 278 57 391 72
162 22 614 26 775 6 609 -74 1136 -280 1605 -627 413 -306 664 -653 740 -1025
25 -124 17 -322 -20 -445 -30 -102 -88 -224 -140 -295 -64 -87 -168 -175 -257
-219 -116 -57 -191 -75 -323 -75 -219 0 -457 90 -751 282 -65 43 -562 397
-1104 787 -1104 794 -1069 769 -1090 780 -8 4 35 -43 95 -106 528 -545 976
-1172 1301 -1819 146 -293 189 -435 188 -635 -1 -196 -53 -341 -164 -454 -102
-104 -246 -161 -411 -161 -160 0 -297 42 -436 132 -197 129 -359 336 -538 688
-214 423 -378 900 -474 1378 -66 331 -66 334 -53 870 7 263 15 609 18 770 l7
293 32 42 c163 216 317 509 400 762 71 216 95 331 145 705 62 456 127 629 304
806 142 142 275 203 445 205 l86 1 -58 19 c-118 38 -209 51 -352 51 -202 0
-383 -41 -547 -123 -32 -16 -58 -27 -58 -24 0 2 25 57 55 121 30 65 53 119 51
121 -8 9 -209 -101 -284 -155 -114 -82 -177 -138 -260 -232 -138 -157 -254
-356 -312 -538 l-28 -86 -16 54 c-131 465 -11 1024 309 1436 84 107 248 261
349 328 198 131 377 199 611 230 54 8 227 -4 292 -19z m-811 -1150 c7 -28 -9
-53 -41 -65 -47 -17 -62 26 -23 67 29 31 56 30 64 -2z m-125 -68 c-13 -12 -20
-15 -16 -7 14 26 28 41 33 35 3 -3 -5 -16 -17 -28z m-1891 -39 c291 -69 629
-441 899 -988 155 -314 254 -617 311 -955 12 -71 25 -139 29 -149 7 -19 18 59
37 249 l7 70 14 -40 c17 -48 20 -281 4 -341 -32 -127 -44 -743 -27 -1447 8
-344 9 -357 27 -352 13 4 19 1 19 -9 0 -8 12 -29 27 -46 l26 -32 13 24 c7 12
14 34 14 48 1 30 25 66 34 51 12 -19 -97 -574 -165 -841 -54 -211 -167 -548
-223 -666 -100 -210 -225 -356 -361 -420 -195 -93 -375 -78 -504 41 -103 96
-154 226 -153 395 1 164 34 283 160 566 209 469 462 950 724 1378 44 70 78
130 76 132 -2 1 -273 -259 -603 -579 -593 -577 -661 -639 -721 -670 -94 -48
-207 -41 -268 16 -93 89 -58 229 100 394 32 34 302 293 599 575 524 499 574
548 562 548 -4 0 -86 -23 -184 -50 -477 -134 -779 -159 -1068 -85 -196 49
-331 122 -456 245 -153 151 -229 326 -229 528 0 182 53 306 185 431 177 167
446 245 735 212 114 -13 337 -64 491 -111 53 -17 100 -30 105 -30 5 0 -54 41
-130 90 -516 337 -761 634 -832 1007 -20 105 -15 269 11 352 38 123 86 202
180 297 100 101 171 143 285 169 68 15 168 12 250 -7z m2165 -14 c-33 -26 -79
-43 -86 -32 -7 12 -49 -52 -49 -75 0 -26 33 -37 112 -38 l73 -1 -65 -14 c-36
-7 -77 -11 -93 -8 -49 10 -63 71 -26 118 21 27 68 59 55 37 -10 -15 -5 -14 45
9 53 24 60 24 34 4z"/>
<path d="M5311 7744 c-54 -11 -98 -31 -80 -35 2 -1 105 -4 229 -8 204 -6 230
-9 275 -29 27 -13 60 -33 72 -44 13 -12 23 -17 23 -12 0 19 -76 83 -120 102
-102 43 -270 55 -399 26z"/>
<path d="M4601 7536 c-17 -20 13 -43 34 -26 8 7 15 19 15 26 0 18 -34 18 -49
0z"/>
</g>
</svg>
